<?xml version="1.0" encoding="UTF-8" standalone="no"?>
<svg
   width="7.5in"
   height="7.5in"
   viewBox="0 0 540.00231 540.00231"
   version="1.1"
   id="svg3"
   sodipodi:docname="default.svg"
   inkscape:version="1.1.2 (b8e25be833, 2022-02-05)"
   xmlns:inkscape="http://www.inkscape.org/namespaces/inkscape"
   xmlns:sodipodi="http://sodipodi.sourceforge.net/DTD/sodipodi-0.dtd"
   xmlns="http://www.w3.org/2000/svg"
   xmlns:svg="http://www.w3.org/2000/svg">
  <defs
     id="defs7" />
  <sodipodi:namedview
     id="namedview5"
     pagecolor="#ffffff"
     bordercolor="#666666"
     borderopacity="1.0"
     inkscape:pageshadow="2"
     inkscape:pageopacity="0.0"
     inkscape:pagecheckerboard="0"
     inkscape:document-units="in"
     showgrid="false"
     inkscape:zoom="0.82879343"
     inkscape:cx="244.93437"
     inkscape:cy="399.37575"
     inkscape:window-width="1920"
     inkscape:window-height="1017"
     inkscape:window-x="1912"
     inkscape:window-y="-8"
     inkscape:window-maximized="1"
     inkscape:current-layer="svg3" />
  <path
     id="Selection"
     fill="none"
     stroke="#000000"
     stroke-width="1"
     d="m 257.80368,83.767973 c 0,0 24,0 24,0 5.4,-0.15 10.72,0.93 16,1.98 35.09,6.99 66.78,31.369997 82.11,63.799997 4.96,10.48 8.8,22.52 10.46,34.00001 0,0 2.03,19.83 2.03,19.83 1.58,3.85 5.38,4.01 10.94,13.17 5.51,9.1 7.77,22.45 8.37,33 0.21,3.83 -0.39,5.47 -0.74,9 -1.25,12.43 -3.58,25.29 -12.49,34.83 -8.14,8.7 -13.09,4.59 -16.57,12.19 0,0 -4.51,11.98 -4.51,11.98 -3.94,9.86 -8.7,19.07 -14.46,28 -15.92,24.64 -38.28,44.14 -67.14,51.52 -10.75,2.75 -18.13,2.6 -29,2.48 -6.36,-0.08 -12.87,-1.48 -19,-3.15 -32.15,-8.8 -55.27,-32.41 -71.14,-60.85 -3.78,-6.78 -6.82,-13.79 -9.66,-21 0,0 -3.31,-8.98 -3.31,-8.98 -3.39,-7.39 -7.64,-3.51 -15.71,-11.32 -7.14,-6.92 -10.87,-18.11 -12.57,-27.7 -2.86999,-16.22 -1.34999,-35.37 6.7,-50 5.09,-9.23 9.45,-9.94 11.09,-14.09 0,0 1.88,-17.91 1.88,-17.91 1.12,-8.70001 3.68,-17.80001 6.78,-26.00001 13.24,-34.91 43.1,-61.319997 78.94,-71.259997 0,0 17,-3.52 17,-3.52 z m 10,20.059997 c -12.72,1.83 -20.7,2.32 -33,7.59 -32.93,14.11 -59.57,48.45 -60.02,85.13001 -0.02,3.56 0.78,15.77 0,18 -3.14,8.56 -9.82,5.93 -13.65,11.13 -7.08,9.61 -7.19,28.66 -4.67,39.87 0.85,3.75 3.15,11.16 6.55,13.4 2.63,1.41 4.98,-0.15 7.79,0 4.14,0.66 7.54,3.91 9.15,7.6 0,0 4.2,14 4.2,14 2.69,8.06 6.91,17.53 10.96,25 15.39,28.4 43.69,53.82 77.69,53.82 0,0 10,-0.99 10,-0.99 33.44,-3.73 59.49,-34 72.69,-62.83 0,0 10.61,-30 10.61,-30 1.73,-3.33 4.84,-6.24 8.7,-6.87 2.58,-0.11 5.25,1.15 7.67,0 5.53,-3.25 8.03,-18.18 8.29,-24.13 0.35,-7.98 -1.51,-23.64 -6.95,-29.71 -3.55,-3.96 -8.92,-1.82 -12.78,-9.29 -1.29,-3.15 -0.18,-13.71 0,-18 -0.79,-47.81001 -41.4,-88.74001 -88.23,-93.07001 -6.82,-0.64 -7.57,-1.34 -15,-0.65 z m -96,270.24001 c 11.02,-1.74 11.67,2.24 19.04,8.9 5.77,5.22 11.51,10.45 17.96,14.83 20.11,13.69 42.67,21.03 67,20.75 21.31,-0.25 45.89,-9.73 63,-22.16 5.95,-4.32 11.52,-9.19 16.83,-14.26 3.14,-2.99 5.83,-6.77 10.17,-8.07 6.73,-2.01 18.45,3.47 25,5.8 19.58,6.96 40.09,12.33 58,23.14 34.68,20.92 60.94,62.42 61,103.55 0.01,4.61 0.52,21.78 -0.74,24.98 -0.83,2.13 -2.29,3.77 -4.3,4.85 -2.59,1.38 -6.09,1.17 -8.96,1.17 0,0 -352,0 -352,0 0,0 -81.999998,0 -81.999998,0 -7.47,0 -21.94,2.43 -25.26,-6.02 -0.87,-2.2 -0.74,-5.59 -0.74,-7.98 0,0 0,-19 0,-19 0.07,-5.53 1.3,-12.53 2.4,-18 6.82,-34.1 27.29,-63.63 56.600004,-82.31 15.800004,-10.06 26.130004,-12.38 42.999994,-18.38 0,0 34,-11.79 34,-11.79 z" />
  <path
     style="opacity:1;fill:#ff6600;fill-opacity:1;stroke:#ff6600;stroke-width:2.26233;stroke-opacity:1"
     d="m 42.05815,535.1993 c -5.266695,-2.64634 -5.577939,-4.0624 -5.122042,-23.30353 0.442787,-18.68787 1.799355,-27.00243 6.721252,-41.19542 10.900074,-31.43183 34.618004,-58.24312 63.99591,-72.3424 11.25936,-5.40368 64.39799,-23.55966 68.95403,-23.55966 3.59334,0 4.45901,0.55768 12.99356,8.37064 17.70312,16.20635 30.36625,24.13202 47.94708,30.00941 12.55851,4.19839 23.2594,5.96171 36.17926,5.96171 12.59653,0 22.01689,-1.63198 34.62282,-5.99804 17.71977,-6.13725 31.37405,-14.76162 48.39153,-30.56527 8.0827,-7.50617 8.52616,-7.77811 12.66907,-7.76886 2.68654,0.006 8.18777,1.38463 14.69994,3.68383 5.72371,2.02083 17.53309,6.11751 26.24308,9.10371 26.22456,8.99106 41.80454,17.27057 55.34637,29.41211 17.4871,15.67886 30.08427,34.80366 37.47726,56.89728 4.4401,13.26904 5.98454,24.96091 5.6436,42.72372 -0.28184,14.68362 -0.28248,14.6876 -2.79101,17.19374 l -2.50911,2.50671 -229.15395,0.22772 C 57.584702,536.77213 45.042511,536.69885 42.05815,535.1993 Z"
     id="path1124" />
  <path
     style="opacity:1;fill:#c8beb7;fill-opacity:1;stroke:#c8beb7;stroke-width:2.26233;stroke-opacity:1"
     d="m 254.15724,396.98183 c -37.60745,-8.59448 -68.08264,-37.56101 -85.38244,-81.15564 -2.63333,-6.63587 -5.37073,-12.73305 -6.08311,-13.54932 -0.71238,-0.81626 -3.90509,-2.76894 -7.09491,-4.33929 -6.65115,-3.27435 -10.20929,-7.12653 -14.14283,-15.31157 -4.43391,-9.22622 -6.46437,-21.06232 -5.92161,-34.51845 0.71238,-17.66076 4.56697,-28.70288 13.52368,-38.74085 4.8635,-5.45063 5.03914,-5.83064 5.62692,-12.17435 1.08657,-11.72702 3.12227,-22.9684 5.55247,-30.66133 12.98234,-41.09637 46.13257,-70.885147 89.04001,-80.011247 10.46155,-2.2251 12.43382,-2.36838 26.24308,-1.90644 8.49971,0.28433 17.8549,1.13706 21.71841,1.97965 32.41173,7.06863 60.13663,26.808467 76.95452,54.790837 8.86946,14.75741 13.68635,29.78088 15.87176,49.50275 l 1.47731,13.33168 3.92295,4.0722 c 5.62704,5.84113 9.85857,13.39707 12.2981,21.9598 1.77444,6.22829 2.12103,9.52892 2.11273,20.11963 -0.0113,14.40065 -1.70706,23.76186 -5.9014,32.57762 -3.72881,7.83729 -7.36688,11.74318 -13.96227,14.99007 -3.18982,1.57035 -6.39231,3.52303 -7.11666,4.33929 -0.72433,0.81627 -3.40958,6.77798 -5.96722,13.24825 -16.12535,40.79378 -44.30757,69.44957 -78.4052,79.7227 -7.1349,2.14965 -9.85695,2.46464 -23.4555,2.71424 -10.83063,0.19881 -17.01911,-0.0913 -20.90879,-0.98023 z M 291.9845,377.5835 c 8.25998,-2.11256 19.13585,-7.44511 26.54459,-13.0151 12.31562,-9.25906 27.45217,-27.67311 34.93885,-42.50417 1.48615,-2.94404 5.14318,-12.33885 8.12674,-20.87736 4.49067,-12.85163 5.95886,-16.03094 8.52738,-18.4656 2.71708,-2.5755 3.71297,-2.94103 8.0127,-2.94103 4.36159,0 5.16915,-0.30801 7.23045,-2.75771 3.51232,-4.17418 5.24057,-10.9898 5.72572,-22.58044 0.47244,-11.28671 -0.89169,-19.69175 -4.36354,-26.88607 -1.45584,-3.01675 -2.84723,-4.28734 -6.68108,-6.10105 -8.16546,-3.86287 -8.57903,-4.8483 -8.51023,-20.2772 0.12252,-27.47247 -7.87894,-47.29144 -27.22255,-67.42813 -33.35324,-34.720707 -86.02972,-40.736957 -126.01816,-14.39272 -18.85294,12.42026 -34.58397,33.56028 -41.07674,55.20066 -2.04511,6.81637 -2.46246,10.27044 -2.94405,24.36555 -0.63942,18.71445 -0.63835,18.71169 -8.73217,22.54067 -3.25285,1.53885 -5.1713,3.19637 -6.56057,5.66824 -5.86263,10.43113 -6.40924,33.69959 -1.07674,45.83491 2.92144,6.64839 3.75093,7.26191 9.87121,7.30113 7.78552,0.0499 9.97904,2.39622 13.61902,14.56785 5.10931,17.08488 12.34468,32.18823 21.5344,44.95162 6.88997,9.56934 20.97832,22.92679 30.10569,28.54382 7.8556,4.83438 19.71279,9.57598 27.43812,10.97232 6.76997,1.22366 23.591,0.30539 31.51096,-1.72019 z"
     id="path8130" />
</svg>
