<?xml version="1.0" encoding="UTF-8" standalone="no"?>
<svg
   width="6.5in"
   height="6.5in"
   viewBox="0 0 468.002 468.002"
   version="1.1"
   id="svg3"
   sodipodi:docname="whitehat.svg"
   inkscape:version="1.1.2 (b8e25be833, 2022-02-05)"
   xmlns:inkscape="http://www.inkscape.org/namespaces/inkscape"
   xmlns:sodipodi="http://sodipodi.sourceforge.net/DTD/sodipodi-0.dtd"
   xmlns="http://www.w3.org/2000/svg"
   xmlns:svg="http://www.w3.org/2000/svg">
  <defs
     id="defs7" />
  <sodipodi:namedview
     id="namedview5"
     pagecolor="#ffffff"
     bordercolor="#666666"
     borderopacity="1.0"
     inkscape:pageshadow="2"
     inkscape:pageopacity="0.0"
     inkscape:pagecheckerboard="0"
     inkscape:document-units="in"
     showgrid="false"
     inkscape:zoom="0.82879343"
     inkscape:cx="304.05646"
     inkscape:cy="381.27715"
     inkscape:window-width="1920"
     inkscape:window-height="1017"
     inkscape:window-x="1912"
     inkscape:window-y="-8"
     inkscape:window-maximized="1"
     inkscape:current-layer="svg3" />
  <path
     id="Selection"
     fill="none"
     stroke="#000000"
     stroke-width="1"
     d="m 151.19801,151.17203 c 5.51,-30.26 9.59,-58.159998 18.14,-88.000001 2.07,-7.22 7.45,-26.09 15.86,-27.28 5.27,-0.75 10.43,2.94 14,6.32 7.74,7.33 14.77,19.9 27,18.85 9.52,-0.81 21.33,-14.64 29,-20.6 5.03,-3.91 11.29,-7.13 16.79,-2.01 5.85,5.44 10.4,23.68 12.63,31.72 0,0 12.78,57.000001 12.78,57.000001 0,0 4.8,24 4.8,24 -13.42,3.92 -27.08,6.51 -41,7.96 0,0 -10,0 -10,0 0,0 -12,1.04 -12,1.04 -29.63,0.05 -58.88,-3.52 -88,-9 z m -6,32.44 c 7.5,-0.79 18.06,4.09 26,5.91 12.28,2.81 33.52,5.63 46,5.65 21.16,0.03 38.91,0.11 60,-3.43 0,0 21,-4.77 21,-4.77 4.1,-1.26 8.73,-3.57 13,-3.62 0,0 34,7.19 34,7.19 17.02,4.26 42.63,10.81 58,18.39 7.94,3.91 20.75,10.59 8.98,19.63 -1.46,1.12 -3.34,2.16 -4.98,3.01 -20.9,10.7 -58.35,17.46 -82,20.87 -63.44,9.15 -132.68,9.94 -196,-0.68 -21.44,-3.6 -47.939997,-8.09 -67.999997,-16.19 -5.67,-2.29 -19.89,-7.41 -17.92,-15.4 1.75,-7.1 17.48,-12.94 23.92,-15.32 21.019996,-7.77 55.939997,-17.2 77.999997,-21.24 z m 82,279.56 c 0,0 -1,-11 -1,-11 -0.51,-44.17 24.37,-84.98 54.04,-116 8.78,-9.18 18.27,-17.53 27.96,-25.73 0,0 11.78,-9.57 11.78,-9.57 4.74,-4.94 7.08,-19.77 7.93,-26.7 0.39,-3.13 -0.5,-8.83 2.6,-10.41 0,0 14.69,-2.31 14.69,-2.31 4.4,-0.58 19.72,-3.01 23,-2.16 3.16,0.83 9.89,6.11 13,8.21 0,0 31,21.65 31,21.65 0,0 19,13.16 19,13.16 4,2.85 7.57,4.52 10,8.86 -12.6,0.58 -45.66,7.33 -59,10.35 -16.77,3.8 -39.62,9.38 -54,18.65 0,0 22,9.69 22,9.69 0,0 22,11.31 22,11.31 0,0 -31,8.08 -31,8.08 -34.64,11.88 -60.61,28.4 -85.96,54.92 -5.87,6.14 -13.69,16.77 -18.35,24 -2.97,4.61 -6.07,11.38 -9.69,15 z m -189.999997,-151 c 4.58,-6.1 20.34,-18.5 27,-24.28 0,0 22.999996,-19.85 22.999996,-19.85 2.95,-2.54 8.28,-7.77 12,-8.52 0,0 26.000001,3.38 26.000001,3.38 2.94,0.42 6.87,0.49 9.01,2.8 0,0 6.24,12.47 6.24,12.47 0,0 15.17,28 15.17,28 16.85,27.06 48.83,65.03 75.58,82 0,0 -8,33 -8,33 -7.99,-2.28 -18.3,-8.88 -26,-12.75 0,0 -59,-28.1 -59,-28.1 -9.28,-3.98 -24.3,-10.65 -34,-12.15 2.9,-6.12 8.94,-10.11 14,-14.42 0,0 23,-19.58 23,-19.58 0,0 -34,-9.29 -34,-9.29 -21.989997,-6.25 -47.139997,-12.71 -69.999997,-12.71 z m 113.999997,-48 c 14.3,2.88 28.31,5.98 43,6.12 0,0 52,0 52,0 0,0 11,0 11,0 0,0 13,0 13,0 13.05,-0.14 25.4,-3.27 38,-6.12 1.12,8.55 0.63,16.69 -4.64,24 -9.83,13.64 -35.2,16.53 -49.36,8.65 -12.32,-6.86 -13.1,-19.83 -26,-18.45 -11.95,1.28 -10.25,12.11 -24,18.99 -14.15,7.09 -38.67,4.23 -48.36,-9.19 -5.27,-7.3 -5.76,-15.46 -4.64,-24 z" />
  <path
     style="fill:#000000;stroke:#000000;stroke-width:2.26233;stroke-opacity:1"
     d="m 208.23872,413.10037 c -35.30598,-18.30677 -86.82795,-41.75986 -97.81738,-44.52704 -2.33672,-0.58839 -4.24859,-1.34079 -4.24859,-1.67199 0,-1.02526 8.953,-9.26953 21.71841,-19.99914 15.21758,-12.79072 14.92442,-12.52253 14.33406,-13.1129 -0.26929,-0.26929 -13.00269,-3.92574 -28.29645,-8.12544 -35.571247,-9.76796 -56.885727,-14.05137 -69.920267,-14.05137 -4.46763,0 -4.89183,-0.15742 -3.83987,-1.42496 1.77429,-2.13787 54.024156,-46.78099 56.563916,-48.32909 1.96464,-1.19755 3.900451,-1.12263 18.200391,0.70437 8.80105,1.12445 16.49686,2.45522 17.10179,2.95727 0.60493,0.50206 5.47895,9.14393 10.83116,19.20417 11.92253,22.41012 16.46734,29.80585 26.41221,42.98039 16.35784,21.67013 37.71373,44.04395 52.5219,55.02536 3.8452,2.85152 7.26344,5.42527 7.59608,5.71945 0.33264,0.29419 -1.10798,7.61179 -3.20139,16.26135 l -3.80619,15.72646 z"
     id="path898" />
  <path
     style="fill:#000000;stroke:#000000;stroke-width:2.26233;stroke-opacity:1"
     d="m 172.98977,298.16016 c -13.29215,-4.37606 -20.04245,-12.58474 -21.24422,-25.83402 -0.22963,-2.53162 -0.0789,-5.09345 0.33484,-5.69294 0.57414,-0.83179 3.63961,-0.51101 12.94101,1.35418 l 12.18865,2.44416 54.29603,-0.0232 54.29604,-0.0232 10.40673,-2.36846 c 7.62238,-1.73477 10.60056,-2.09089 11.13114,-1.33103 0.93013,1.33207 0.22867,9.09144 -1.28706,14.23725 -1.68568,5.72271 -9.60103,13.4627 -16.63775,16.26915 -4.6462,1.85304 -6.97831,2.16575 -16.28214,2.18327 -9.34907,0.0176 -11.46727,-0.26018 -15.2317,-1.99753 -5.43148,-2.50672 -8.7408,-5.26174 -14.01318,-11.66605 -5.34286,-6.48992 -9.90413,-8.87167 -15.68004,-8.18759 -5.61694,0.66524 -7.80348,2.19257 -13.84656,9.67198 -3.97447,4.91911 -6.25536,6.80919 -11.08843,9.1885 -5.56381,2.73906 -6.90108,3.01549 -15.62142,3.22912 -7.35268,0.18012 -10.71047,-0.1528 -14.66194,-1.4537 z"
     id="path937" />
  <path
     style="fill:#000000;stroke:#000000;stroke-width:2.26233;stroke-opacity:1"
     d="m 227.70228,446.80588 c 0.28755,-7.41389 1.18716,-16.53394 1.99915,-20.2668 4.94305,-22.72393 16.56363,-46.54849 33.68275,-69.05645 8.6785,-11.41035 32.36683,-35.35701 46.84043,-47.35124 6.20705,-5.14374 11.67449,-10.46262 12.7791,-12.43185 2.39915,-4.27706 4.73267,-14.0415 5.72187,-23.94279 0.41434,-4.14725 1.11978,-7.90689 1.56765,-8.35476 0.81654,-0.81654 19.91118,-3.87672 31.22608,-5.00441 5.36763,-0.53496 6.42067,-0.36477 9.49349,1.53433 5.64588,3.48935 61.08558,42.19514 64.92814,45.33025 l 3.53955,2.88788 -11.01403,1.58547 c -25.28071,3.63916 -65.48183,12.77731 -81.46321,18.51748 -9.32598,3.3497 -19.31612,8.44722 -19.38493,9.89127 -0.023,0.48322 5.01524,3.1377 11.19612,5.89886 6.18089,2.76116 15.60707,7.22738 20.94706,9.92492 l 9.70909,4.90464 -15.13869,3.92649 c -8.32627,2.15957 -19.82172,5.77471 -25.54543,8.03363 -39.97356,15.77593 -74.14075,44.02852 -94.99116,78.54745 -2.55336,4.2272 -5.08646,7.96022 -5.62914,8.29562 -0.70417,0.43519 -0.83699,-3.24991 -0.46389,-12.86999 z"
     id="path976" />
  <path
     style="fill:#ffffff;stroke:#c8beb7;stroke-width:2.26233"
     d="M 186.86883,257.35545 C 148.2317,254.92344 95.699791,246.09181 70.674,237.82085 43.557444,228.85889 37.989979,221.79942 51.328181,213.2906 c 9.932334,-6.33613 43.095855,-17.12812 77.624889,-25.26049 16.57226,-3.90316 20.86015,-3.93986 32.57761,-0.27889 10.07031,3.14634 23.81805,5.71417 39.23534,7.32845 13.42433,1.40561 56.90672,0.58974 69.36957,-1.30161 10.52802,-1.59771 26.55033,-5.25158 34.45115,-7.85654 l 5.50612,-1.8154 18.92709,4.03616 c 49.7042,10.59929 81.42602,22.11359 86.36923,31.35006 6.39532,11.94974 -51.06487,28.84171 -121.28569,35.65517 -32.70561,3.1734 -77.30704,4.09173 -107.23466,2.20794 z"
     id="path1007" />
  <path
     style="fill:#ffffff;stroke:#c8beb7;stroke-width:2.26233"
     d="m 204.96751,157.87119 c -9.99142,-0.9237 -38.49356,-4.90067 -47.15815,-6.5801 l -5.5312,-1.07208 4.70831,-25.79061 c 11.93157,-65.357339 20.34454,-89.196037 30.87527,-87.487135 4.40222,0.714383 9.18736,4.321556 16.87336,12.719618 11.03148,12.053489 18.89067,14.843696 28.33391,10.059246 2.46187,-1.247308 9.05168,-6.288477 14.64403,-11.202588 14.80169,-13.006544 18.06816,-14.172796 23.73475,-8.47422 5.59416,5.625715 9.07337,16.517194 18.10481,56.6761 3.48332,15.488799 7.5013,33.943119 8.92884,41.009609 l 2.59553,12.84817 -9.59504,2.28148 c -17.86162,4.24708 -25.52972,5.05017 -52.12694,5.45934 -13.93598,0.21439 -29.41035,0.0133 -34.38748,-0.44683 z"
     id="path1046" />
</svg>
